<?xml version="1.0" standalone="no"?>
<!DOCTYPE svg PUBLIC "-//W3C//DTD SVG 20010904//EN"
 "http://www.w3.org/TR/2001/REC-SVG-20010904/DTD/svg10.dtd">
<svg version="1.0" xmlns="http://www.w3.org/2000/svg"
 width="335.000000pt" height="337.000000pt" viewBox="0 0 335.000000 337.000000"
 preserveAspectRatio="xMidYMid meet">

<g transform="translate(0.000000,337.000000) scale(0.100000,-0.100000)"
fill="#000000" stroke="none">
<path d="M1539 3277 c-107 -41 -178 -88 -250 -164 -78 -81 -114 -159 -161
-342 -21 -86 -48 -184 -58 -218 -11 -34 -31 -117 -45 -185 -14 -68 -37 -146
-50 -175 -14 -28 -25 -56 -25 -60 0 -5 -22 -52 -49 -105 -27 -53 -47 -98 -45
-101 3 -3 -1 -28 -10 -56 -8 -28 -18 -82 -22 -121 -10 -104 -36 -128 -240
-215 -125 -53 -171 -83 -245 -161 -98 -104 -124 -165 -154 -374 -19 -131 -41
-227 -72 -304 -31 -81 -30 -106 10 -147 l34 -35 7 -159 c3 -88 9 -190 13 -227
5 -63 7 -67 34 -73 41 -9 115 4 117 21 5 56 2 103 -9 129 -18 47 -21 175 -3
182 19 7 200 -56 219 -77 19 -21 45 -116 54 -195 l6 -60 1064 0 1064 0 1 48 1
48 100 38 c55 21 130 52 166 69 l66 30 7 50 c3 27 4 72 1 98 -3 27 -7 94 -10
149 -22 450 -48 632 -101 717 -13 21 -50 58 -82 83 -58 46 -88 62 -244 134
-49 22 -88 44 -88 50 0 5 5 32 11 59 13 55 -1 121 -48 222 -14 30 -38 92 -53
136 -26 77 -28 89 -23 205 5 126 5 134 -51 450 -24 134 -49 200 -120 321 -82
140 -110 171 -214 243 -129 89 -158 98 -297 102 -116 3 -123 2 -206 -30z m326
-147 c11 -5 32 -11 46 -14 16 -4 26 -12 26 -23 0 -36 3 -43 22 -43 46 0 121
-52 147 -102 8 -16 12 -28 9 -28 -8 0 34 -81 61 -117 20 -26 24 -44 24 -97 0
-64 23 -180 55 -277 14 -41 21 -49 38 -47 28 4 35 -23 36 -143 1 -88 -2 -101
-29 -155 -16 -32 -32 -72 -36 -87 -8 -37 -38 -33 -42 6 -2 16 -8 27 -14 25 -5
-2 -31 -35 -56 -73 -52 -77 -82 -98 -193 -135 -53 -18 -72 -21 -81 -12 -7 7
-27 12 -45 12 -17 0 -42 4 -55 9 -13 6 -39 12 -58 15 -28 5 -42 15 -63 48 -15
23 -27 51 -27 62 0 33 29 56 71 56 29 0 39 5 44 21 4 11 5 22 3 23 -1 2 -22
15 -46 30 -23 15 -40 31 -37 36 3 6 38 10 76 10 44 0 68 4 64 10 -3 6 -20 10
-36 10 -26 0 -29 3 -24 20 5 15 -1 22 -29 34 -55 23 -42 46 25 46 32 0 36 14
14 44 -8 11 -15 30 -15 42 0 13 -5 26 -11 30 -8 5 -9 27 -4 73 16 135 12 173
-24 230 -35 54 -56 71 -89 71 -23 0 -39 45 -23 64 13 15 16 118 6 174 -7 38
-5 45 19 67 15 14 38 25 51 25 13 0 46 5 74 12 42 9 51 15 51 33 0 12 3 24 6
27 6 6 39 1 69 -12z m-285 -540 c13 -8 13 -10 -2 -10 -9 0 -20 5 -23 10 -8 13
5 13 25 0z m20 -61 c0 -5 -11 -9 -25 -9 -23 0 -24 2 -15 21 9 16 14 18 26 8 8
-6 14 -15 14 -20z m-50 -69 c41 -5 76 -9 78 -9 5 -1 -41 -86 -60 -110 -13 -17
-17 -33 -13 -55 4 -20 1 -38 -9 -51 -16 -20 -16 -20 -31 -1 -8 10 -16 24 -18
30 -3 7 -12 4 -26 -8 -21 -19 -21 -19 -42 0 -34 30 -59 94 -59 151 0 61 16 77
70 68 19 -4 69 -10 110 -15z m779 -24 c9 -10 8 -16 -4 -26 -13 -11 -19 -11
-32 2 -16 17 -10 38 11 38 8 0 19 -6 25 -14z m-902 -288 c-3 -8 -6 -5 -6 6 -1
11 2 17 5 13 3 -3 4 -12 1 -19z m618 -455 c-9 -48 -26 -114 -37 -147 -19 -54
-95 -219 -134 -288 -16 -30 -44 -179 -44 -241 0 -21 -4 -47 -10 -57 -12 -22
-60 -40 -107 -40 -68 0 -242 123 -294 207 -19 30 -20 38 -9 58 7 13 27 29 43
35 17 5 39 18 49 26 10 10 26 14 39 11 28 -7 99 32 99 54 0 9 -6 22 -14 28 -8
6 -19 25 -26 40 -10 25 -8 35 14 77 16 31 26 65 26 92 0 37 6 48 45 87 24 25
49 45 54 45 6 0 41 14 78 31 38 17 100 44 138 60 39 16 77 37 85 48 14 18 15
17 18 -10 2 -16 -4 -68 -13 -116z m-1160 52 c-8 -30 -18 -55 -22 -55 -11 0 5
111 19 127 12 15 13 15 16 0 2 -9 -4 -42 -13 -72z m444 -475 c0 -10 -3 -8 -9
5 -12 27 -12 43 0 25 5 -8 9 -22 9 -30z"/>
<path d="M1920 2680 c-8 -14 -7 -25 1 -39 10 -16 8 -23 -14 -45 -47 -47 -26
-108 47 -136 37 -14 46 -13 46 5 0 12 14 15 65 15 36 0 65 4 65 9 0 17 -51 50
-86 57 -24 4 -40 16 -55 41 -29 47 -16 55 79 49 111 -6 88 17 -48 49 -83 19
-87 19 -100 -5z m144 -169 c3 -5 -1 -12 -10 -15 -20 -8 -29 -1 -19 13 8 13 22
14 29 2z"/>
<path d="M1800 2310 c0 -5 16 -10 35 -10 19 0 35 5 35 10 0 6 -16 10 -35 10
-19 0 -35 -4 -35 -10z"/>
<path d="M2047 2170 c9 -22 22 -40 30 -40 18 0 16 9 -7 48 -27 45 -42 40 -23
-8z"/>
<path d="M1944 2115 c-20 -15 -11 -18 20 -6 11 4 15 10 9 14 -5 3 -19 0 -29
-8z"/>
</g>
</svg>
